<svg width="316" height="200" viewBox="0 0 316 200" fill="none" xmlns="http://www.w3.org/2000/svg">
<rect width="316" height="200" rx="6" fill="white"/>
<line x1="105" y1="64.5" x2="12" y2="64.5" stroke="#EEF1F4"/>
<line x1="298" y1="64.5" x2="205" y2="64.5" stroke="#EEF1F4"/>
<path d="M298 187.5H214L188 161.5" stroke="#EEF1F4"/>
<path d="M240.559 41.1392C239.843 41.1392 239.207 41.0166 238.65 40.7713C238.096 40.526 237.659 40.1847 237.337 39.7472C237.016 39.3097 236.845 38.8042 236.825 38.2308H238.695C238.711 38.5059 238.802 38.7462 238.968 38.9517C239.134 39.1539 239.354 39.3113 239.629 39.424C239.904 39.5367 240.213 39.593 240.554 39.593C240.919 39.593 241.242 39.5301 241.523 39.4041C241.805 39.2749 242.026 39.0959 242.185 38.8672C242.344 38.6385 242.422 38.375 242.418 38.0767C242.422 37.7685 242.342 37.4967 242.18 37.2614C242.017 37.026 241.782 36.8421 241.474 36.7095C241.169 36.5769 240.801 36.5107 240.37 36.5107H239.47V35.0888H240.37C240.725 35.0888 241.035 35.0275 241.3 34.9048C241.568 34.7822 241.779 34.6098 241.931 34.3878C242.084 34.1624 242.158 33.9022 242.155 33.6072C242.158 33.3189 242.094 33.0687 241.961 32.8565C241.832 32.6411 241.648 32.4737 241.409 32.3544C241.174 32.2351 240.897 32.1754 240.579 32.1754C240.267 32.1754 239.979 32.2318 239.714 32.3445C239.449 32.4571 239.235 32.6179 239.072 32.8267C238.91 33.0322 238.824 33.2775 238.814 33.5625H237.039C237.052 32.9924 237.216 32.492 237.531 32.0611C237.849 31.6269 238.274 31.2888 238.804 31.0469C239.334 30.8016 239.929 30.679 240.589 30.679C241.268 30.679 241.858 30.8066 242.359 31.0618C242.862 31.3137 243.252 31.6534 243.527 32.081C243.802 32.5085 243.94 32.9808 243.94 33.4979C243.943 34.0713 243.774 34.5518 243.433 34.9396C243.094 35.3274 242.65 35.581 242.1 35.7003V35.7798C242.816 35.8793 243.365 36.1444 243.746 36.5753C244.13 37.0028 244.321 37.5348 244.317 38.1712C244.317 38.7412 244.155 39.2517 243.83 39.7024C243.509 40.1499 243.065 40.5012 242.498 40.7564C241.934 41.0116 241.288 41.1392 240.559 41.1392ZM249.284 41.1392C248.621 41.1392 248.028 41.0149 247.504 40.7663C246.98 40.5144 246.564 40.1697 246.256 39.7322C245.951 39.2947 245.789 38.7943 245.769 38.2308H247.559C247.592 38.6484 247.772 38.9898 248.101 39.255C248.429 39.5168 248.823 39.6477 249.284 39.6477C249.645 39.6477 249.967 39.5649 250.248 39.3991C250.53 39.2334 250.752 39.0031 250.914 38.7081C251.077 38.4131 251.156 38.0767 251.153 37.6989C251.156 37.3144 251.075 36.973 250.909 36.6747C250.744 36.3764 250.517 36.1428 250.228 35.9737C249.94 35.8014 249.609 35.7152 249.234 35.7152C248.929 35.7119 248.629 35.7682 248.334 35.8842C248.039 36.0002 247.806 36.1527 247.633 36.3416L245.968 36.0682L246.5 30.8182H252.406V32.3594H248.026L247.733 35.0589H247.792C247.981 34.8369 248.248 34.6529 248.593 34.5071C248.937 34.358 249.315 34.2834 249.726 34.2834C250.343 34.2834 250.893 34.4292 251.377 34.7209C251.861 35.0092 252.242 35.407 252.52 35.9141C252.799 36.4212 252.938 37.0012 252.938 37.6541C252.938 38.3269 252.782 38.9268 252.471 39.4538C252.162 39.9775 251.733 40.3902 251.183 40.6918C250.636 40.9901 250.003 41.1392 249.284 41.1392ZM259.767 39.0909V38.554C259.767 38.1596 259.85 37.7966 260.016 37.4652C260.185 37.1338 260.43 36.867 260.752 36.6648C261.073 36.4626 261.463 36.3615 261.92 36.3615C262.391 36.3615 262.785 36.4626 263.103 36.6648C263.421 36.8636 263.662 37.1288 263.824 37.4602C263.99 37.7917 264.073 38.1562 264.073 38.554V39.0909C264.073 39.4853 263.99 39.8482 263.824 40.1797C263.658 40.5111 263.415 40.7779 263.093 40.9801C262.775 41.1823 262.384 41.2834 261.92 41.2834C261.456 41.2834 261.063 41.1823 260.742 40.9801C260.42 40.7779 260.177 40.5111 260.011 40.1797C259.848 39.8482 259.767 39.4853 259.767 39.0909ZM261.065 38.554V39.0909C261.065 39.3527 261.128 39.593 261.254 39.8118C261.38 40.0305 261.602 40.1399 261.92 40.1399C262.241 40.1399 262.462 40.0322 262.581 39.8168C262.704 39.598 262.765 39.3561 262.765 39.0909V38.554C262.765 38.2888 262.707 38.0469 262.591 37.8281C262.475 37.6061 262.251 37.495 261.92 37.495C261.608 37.495 261.388 37.6061 261.259 37.8281C261.129 38.0469 261.065 38.2888 261.065 38.554ZM254.592 33.2642V32.7273C254.592 32.3295 254.676 31.965 254.845 31.6335C255.014 31.3021 255.26 31.0369 255.581 30.8381C255.903 30.6359 256.292 30.5348 256.749 30.5348C257.217 30.5348 257.61 30.6359 257.928 30.8381C258.249 31.0369 258.491 31.3021 258.654 31.6335C258.816 31.965 258.897 32.3295 258.897 32.7273V33.2642C258.897 33.6619 258.814 34.0265 258.649 34.358C258.486 34.6861 258.244 34.9496 257.923 35.1484C257.601 35.3473 257.21 35.4467 256.749 35.4467C256.282 35.4467 255.888 35.3473 255.566 35.1484C255.248 34.9496 255.006 34.6844 254.84 34.353C254.675 34.0215 254.592 33.6586 254.592 33.2642ZM255.899 32.7273V33.2642C255.899 33.5294 255.961 33.7713 256.083 33.9901C256.209 34.2055 256.431 34.3132 256.749 34.3132C257.068 34.3132 257.286 34.2055 257.406 33.9901C257.528 33.7713 257.59 33.5294 257.59 33.2642V32.7273C257.59 32.4621 257.532 32.2202 257.416 32.0014C257.3 31.7794 257.078 31.6683 256.749 31.6683C256.435 31.6683 256.214 31.7794 256.088 32.0014C255.962 32.2235 255.899 32.4654 255.899 32.7273ZM255.159 41L262.159 30.8182H263.401L256.401 41H255.159Z" fill="#545F71"/>
<path d="M236.905 162V160.668L240.44 157.202C240.778 156.861 241.059 156.558 241.285 156.293C241.51 156.027 241.679 155.771 241.792 155.522C241.905 155.273 241.961 155.008 241.961 154.727C241.961 154.405 241.888 154.13 241.742 153.901C241.596 153.669 241.396 153.49 241.141 153.364C240.885 153.238 240.595 153.175 240.271 153.175C239.936 153.175 239.643 153.245 239.391 153.384C239.139 153.52 238.943 153.714 238.804 153.966C238.668 154.218 238.6 154.518 238.6 154.866H236.845C236.845 154.219 236.993 153.658 237.288 153.18C237.583 152.703 237.989 152.334 238.506 152.072C239.026 151.81 239.623 151.679 240.295 151.679C240.978 151.679 241.578 151.807 242.095 152.062C242.612 152.317 243.013 152.667 243.298 153.111C243.587 153.555 243.731 154.062 243.731 154.632C243.731 155.013 243.658 155.388 243.512 155.756C243.366 156.124 243.109 156.531 242.741 156.979C242.377 157.426 241.865 157.968 241.205 158.604L239.45 160.389V160.459H243.885V162H236.905ZM249.084 162.194C248.265 162.194 247.562 161.987 246.976 161.572C246.392 161.155 245.943 160.553 245.628 159.768C245.317 158.979 245.161 158.029 245.161 156.919C245.164 155.809 245.322 154.864 245.633 154.085C245.948 153.303 246.397 152.706 246.981 152.295C247.567 151.884 248.268 151.679 249.084 151.679C249.899 151.679 250.6 151.884 251.187 152.295C251.773 152.706 252.222 153.303 252.534 154.085C252.849 154.867 253.006 155.812 253.006 156.919C253.006 158.033 252.849 158.984 252.534 159.773C252.222 160.558 251.773 161.158 251.187 161.572C250.603 161.987 249.902 162.194 249.084 162.194ZM249.084 160.638C249.72 160.638 250.222 160.325 250.59 159.698C250.961 159.068 251.147 158.142 251.147 156.919C251.147 156.11 251.062 155.431 250.893 154.881C250.724 154.33 250.486 153.916 250.177 153.638C249.869 153.356 249.505 153.215 249.084 153.215C248.451 153.215 247.95 153.53 247.582 154.16C247.214 154.786 247.029 155.706 247.025 156.919C247.022 157.731 247.103 158.414 247.269 158.967C247.438 159.521 247.677 159.938 247.985 160.22C248.293 160.499 248.659 160.638 249.084 160.638ZM259.822 160.091V159.554C259.822 159.16 259.905 158.797 260.071 158.465C260.24 158.134 260.485 157.867 260.806 157.665C261.128 157.463 261.517 157.362 261.975 157.362C262.445 157.362 262.84 157.463 263.158 157.665C263.476 157.864 263.716 158.129 263.879 158.46C264.044 158.792 264.127 159.156 264.127 159.554V160.091C264.127 160.485 264.044 160.848 263.879 161.18C263.713 161.511 263.469 161.778 263.148 161.98C262.83 162.182 262.439 162.283 261.975 162.283C261.511 162.283 261.118 162.182 260.796 161.98C260.475 161.778 260.231 161.511 260.066 161.18C259.903 160.848 259.822 160.485 259.822 160.091ZM261.12 159.554V160.091C261.12 160.353 261.182 160.593 261.308 160.812C261.434 161.031 261.656 161.14 261.975 161.14C262.296 161.14 262.517 161.032 262.636 160.817C262.758 160.598 262.82 160.356 262.82 160.091V159.554C262.82 159.289 262.762 159.047 262.646 158.828C262.53 158.606 262.306 158.495 261.975 158.495C261.663 158.495 261.443 158.606 261.313 158.828C261.184 159.047 261.12 159.289 261.12 159.554ZM254.646 154.264V153.727C254.646 153.33 254.731 152.965 254.9 152.634C255.069 152.302 255.314 152.037 255.636 151.838C255.957 151.636 256.347 151.535 256.804 151.535C257.271 151.535 257.664 151.636 257.982 151.838C258.304 152.037 258.546 152.302 258.708 152.634C258.871 152.965 258.952 153.33 258.952 153.727V154.264C258.952 154.662 258.869 155.027 258.703 155.358C258.541 155.686 258.299 155.95 257.977 156.148C257.656 156.347 257.265 156.447 256.804 156.447C256.337 156.447 255.942 156.347 255.621 156.148C255.303 155.95 255.061 155.684 254.895 155.353C254.729 155.022 254.646 154.659 254.646 154.264ZM255.954 153.727V154.264C255.954 154.529 256.015 154.771 256.138 154.99C256.264 155.205 256.486 155.313 256.804 155.313C257.122 155.313 257.341 155.205 257.46 154.99C257.583 154.771 257.644 154.529 257.644 154.264V153.727C257.644 153.462 257.586 153.22 257.47 153.001C257.354 152.779 257.132 152.668 256.804 152.668C256.489 152.668 256.269 152.779 256.143 153.001C256.017 153.223 255.954 153.465 255.954 153.727ZM255.213 162L262.213 151.818H263.456L256.456 162H255.213Z" fill="#545F71"/>
<path d="M45.2848 39.1108V37.6442L49.6051 30.8182H50.8281V32.9062H50.0824L47.174 37.5149V37.5945H53.2045V39.1108H45.2848ZM50.142 41V38.6634L50.1619 38.0071V30.8182H51.902V41H50.142ZM58.0527 41.1392C57.3898 41.1392 56.7966 41.0149 56.2729 40.7663C55.7492 40.5144 55.3333 40.1697 55.025 39.7322C54.7201 39.2947 54.5577 38.7943 54.5378 38.2308H56.3276C56.3607 38.6484 56.5414 38.9898 56.8695 39.255C57.1976 39.5168 57.592 39.6477 58.0527 39.6477C58.414 39.6477 58.7355 39.5649 59.0172 39.3991C59.2989 39.2334 59.521 39.0031 59.6834 38.7081C59.8458 38.4131 59.9254 38.0767 59.922 37.6989C59.9254 37.3144 59.8442 36.973 59.6784 36.6747C59.5127 36.3764 59.2857 36.1428 58.9973 35.9737C58.709 35.8014 58.3775 35.7152 58.003 35.7152C57.6981 35.7119 57.3981 35.7682 57.1032 35.8842C56.8082 36.0002 56.5745 36.1527 56.4022 36.3416L54.7367 36.0682L55.2686 30.8182H61.1749V32.3594H56.7949L56.5016 35.0589H56.5612C56.7502 34.8369 57.017 34.6529 57.3617 34.5071C57.7064 34.358 58.0842 34.2834 58.4952 34.2834C59.1117 34.2834 59.6619 34.4292 60.1458 34.7209C60.6297 35.0092 61.0108 35.407 61.2892 35.9141C61.5676 36.4212 61.7068 37.0012 61.7068 37.6541C61.7068 38.3269 61.5511 38.9268 61.2395 39.4538C60.9313 39.9775 60.5021 40.3902 59.9519 40.6918C59.405 40.9901 58.772 41.1392 58.0527 41.1392ZM68.5362 39.0909V38.554C68.5362 38.1596 68.6191 37.7966 68.7848 37.4652C68.9538 37.1338 69.1991 36.867 69.5206 36.6648C69.8421 36.4626 70.2315 36.3615 70.6889 36.3615C71.1596 36.3615 71.554 36.4626 71.8722 36.6648C72.1903 36.8636 72.4306 37.1288 72.593 37.4602C72.7588 37.7917 72.8416 38.1562 72.8416 38.554V39.0909C72.8416 39.4853 72.7588 39.8482 72.593 40.1797C72.4273 40.5111 72.1837 40.7779 71.8622 40.9801C71.544 41.1823 71.1529 41.2834 70.6889 41.2834C70.2249 41.2834 69.8321 41.1823 69.5107 40.9801C69.1892 40.7779 68.9455 40.5111 68.7798 40.1797C68.6174 39.8482 68.5362 39.4853 68.5362 39.0909ZM69.8338 38.554V39.0909C69.8338 39.3527 69.8968 39.593 70.0227 39.8118C70.1487 40.0305 70.3707 40.1399 70.6889 40.1399C71.0104 40.1399 71.2308 40.0322 71.3501 39.8168C71.4728 39.598 71.5341 39.3561 71.5341 39.0909V38.554C71.5341 38.2888 71.4761 38.0469 71.3601 37.8281C71.2441 37.6061 71.0204 37.495 70.6889 37.495C70.3774 37.495 70.157 37.6061 70.0277 37.8281C69.8984 38.0469 69.8338 38.2888 69.8338 38.554ZM63.3608 33.2642V32.7273C63.3608 32.3295 63.4453 31.965 63.6143 31.6335C63.7834 31.3021 64.0286 31.0369 64.3501 30.8381C64.6716 30.6359 65.0611 30.5348 65.5185 30.5348C65.9858 30.5348 66.3786 30.6359 66.6967 30.8381C67.0182 31.0369 67.2602 31.3021 67.4226 31.6335C67.585 31.965 67.6662 32.3295 67.6662 32.7273V33.2642C67.6662 33.6619 67.5833 34.0265 67.4176 34.358C67.2552 34.6861 67.0133 34.9496 66.6918 35.1484C66.3703 35.3473 65.9792 35.4467 65.5185 35.4467C65.0511 35.4467 64.6567 35.3473 64.3352 35.1484C64.017 34.9496 63.7751 34.6844 63.6094 34.353C63.4437 34.0215 63.3608 33.6586 63.3608 33.2642ZM64.6683 32.7273V33.2642C64.6683 33.5294 64.7296 33.7713 64.8523 33.9901C64.9782 34.2055 65.2003 34.3132 65.5185 34.3132C65.8366 34.3132 66.0554 34.2055 66.1747 33.9901C66.2973 33.7713 66.3587 33.5294 66.3587 33.2642V32.7273C66.3587 32.4621 66.3007 32.2202 66.1847 32.0014C66.0687 31.7794 65.8466 31.6683 65.5185 31.6683C65.2036 31.6683 64.9832 31.7794 64.8572 32.0014C64.7313 32.2235 64.6683 32.4654 64.6683 32.7273ZM63.9276 41L70.9276 30.8182H72.1705L65.1705 41H63.9276Z" fill="#545F71"/>
<path d="M143.58 110.21V109.273H150.125V110.21H147.381V118H146.324V110.21H143.58ZM153.09 118.136C152.499 118.136 151.98 117.996 151.534 117.714C151.091 117.433 150.744 117.04 150.494 116.534C150.247 116.028 150.124 115.437 150.124 114.761C150.124 114.08 150.247 113.484 150.494 112.976C150.744 112.467 151.091 112.072 151.534 111.791C151.98 111.51 152.499 111.369 153.09 111.369C153.68 111.369 154.198 111.51 154.641 111.791C155.087 112.072 155.433 112.467 155.68 112.976C155.93 113.484 156.055 114.08 156.055 114.761C156.055 115.437 155.93 116.028 155.68 116.534C155.433 117.04 155.087 117.433 154.641 117.714C154.198 117.996 153.68 118.136 153.09 118.136ZM153.09 117.233C153.538 117.233 153.908 117.118 154.198 116.888C154.487 116.658 154.702 116.355 154.841 115.98C154.98 115.605 155.05 115.199 155.05 114.761C155.05 114.324 154.98 113.916 154.841 113.538C154.702 113.161 154.487 112.855 154.198 112.622C153.908 112.389 153.538 112.273 153.09 112.273C152.641 112.273 152.271 112.389 151.982 112.622C151.692 112.855 151.477 113.161 151.338 113.538C151.199 113.916 151.129 114.324 151.129 114.761C151.129 115.199 151.199 115.605 151.338 115.98C151.477 116.355 151.692 116.658 151.982 116.888C152.271 117.118 152.641 117.233 153.09 117.233ZM160.197 111.455V112.307H156.805V111.455H160.197ZM157.794 109.886H158.799V116.125C158.799 116.409 158.841 116.622 158.923 116.764C159.008 116.903 159.116 116.997 159.247 117.045C159.38 117.091 159.521 117.114 159.669 117.114C159.78 117.114 159.87 117.108 159.942 117.097C160.013 117.082 160.069 117.071 160.112 117.062L160.317 117.966C160.248 117.991 160.153 118.017 160.031 118.043C159.909 118.071 159.754 118.085 159.567 118.085C159.282 118.085 159.004 118.024 158.731 117.902C158.461 117.78 158.237 117.594 158.058 117.344C157.882 117.094 157.794 116.778 157.794 116.398V109.886ZM163.396 118.153C162.981 118.153 162.605 118.075 162.267 117.919C161.929 117.76 161.66 117.531 161.461 117.233C161.263 116.932 161.163 116.568 161.163 116.142C161.163 115.767 161.237 115.463 161.385 115.23C161.532 114.994 161.73 114.81 161.977 114.676C162.224 114.543 162.497 114.443 162.795 114.378C163.096 114.31 163.399 114.256 163.703 114.216C164.101 114.165 164.423 114.126 164.67 114.101C164.92 114.072 165.102 114.026 165.216 113.96C165.332 113.895 165.39 113.781 165.39 113.619V113.585C165.39 113.165 165.275 112.838 165.045 112.605C164.818 112.372 164.473 112.256 164.01 112.256C163.53 112.256 163.153 112.361 162.88 112.571C162.608 112.781 162.416 113.006 162.305 113.244L161.351 112.903C161.521 112.506 161.748 112.196 162.032 111.974C162.319 111.75 162.632 111.594 162.97 111.506C163.311 111.415 163.646 111.369 163.976 111.369C164.186 111.369 164.427 111.395 164.7 111.446C164.976 111.494 165.241 111.595 165.497 111.749C165.755 111.902 165.97 112.134 166.14 112.443C166.311 112.753 166.396 113.168 166.396 113.688V118H165.39V117.114H165.339C165.271 117.256 165.157 117.408 164.998 117.57C164.839 117.732 164.628 117.869 164.363 117.983C164.099 118.097 163.777 118.153 163.396 118.153ZM163.55 117.25C163.947 117.25 164.282 117.172 164.555 117.016C164.831 116.859 165.038 116.658 165.177 116.411C165.319 116.163 165.39 115.903 165.39 115.631V114.71C165.348 114.761 165.254 114.808 165.109 114.851C164.967 114.891 164.802 114.926 164.615 114.957C164.43 114.986 164.25 115.011 164.074 115.034C163.9 115.054 163.76 115.071 163.652 115.085C163.39 115.119 163.146 115.175 162.919 115.251C162.694 115.325 162.513 115.437 162.373 115.588C162.237 115.736 162.169 115.937 162.169 116.193C162.169 116.543 162.298 116.807 162.557 116.986C162.818 117.162 163.149 117.25 163.55 117.25ZM168.997 109.273V118H167.992V109.273H168.997Z" fill="#545F71"/>
<path d="M237.057 48.2727H238.318L241.284 55.517H241.386L244.352 48.2727H245.614V57H244.625V50.3693H244.54L241.812 57H240.858L238.131 50.3693H238.045V57H237.057V48.2727ZM251.481 54.3239V50.4545H252.487V57H251.481V55.892H251.413C251.26 56.2244 251.021 56.5071 250.697 56.7401C250.373 56.9702 249.964 57.0852 249.47 57.0852C249.061 57.0852 248.697 56.9957 248.379 56.8168C248.061 56.6349 247.811 56.3622 247.629 55.9986C247.447 55.6321 247.356 55.1705 247.356 54.6136V50.4545H248.362V54.5455C248.362 55.0227 248.495 55.4034 248.762 55.6875C249.032 55.9716 249.376 56.1136 249.794 56.1136C250.044 56.1136 250.298 56.0497 250.557 55.9219C250.818 55.794 251.037 55.598 251.213 55.3338C251.392 55.0696 251.481 54.733 251.481 54.3239ZM258.725 51.9205L257.822 52.1761C257.765 52.0256 257.681 51.8793 257.57 51.7372C257.462 51.5923 257.315 51.473 257.127 51.3793C256.94 51.2855 256.7 51.2386 256.407 51.2386C256.007 51.2386 255.673 51.331 255.406 51.5156C255.141 51.6974 255.009 51.929 255.009 52.2102C255.009 52.4602 255.1 52.6577 255.282 52.8026C255.464 52.9474 255.748 53.0682 256.134 53.1648L257.106 53.4034C257.691 53.5455 258.127 53.7628 258.414 54.0554C258.701 54.3452 258.845 54.7187 258.845 55.1761C258.845 55.5511 258.737 55.8864 258.521 56.1818C258.308 56.4773 258.009 56.7102 257.626 56.8807C257.242 57.0511 256.796 57.1364 256.288 57.1364C255.62 57.1364 255.068 56.9915 254.63 56.7017C254.193 56.4119 253.916 55.9886 253.799 55.4318L254.754 55.1932C254.845 55.5455 255.016 55.8097 255.269 55.9858C255.525 56.1619 255.859 56.25 256.271 56.25C256.739 56.25 257.112 56.1506 257.387 55.9517C257.666 55.75 257.805 55.5085 257.805 55.2273C257.805 55 257.725 54.8097 257.566 54.6562C257.407 54.5 257.163 54.3835 256.833 54.3068L255.742 54.0511C255.143 53.9091 254.703 53.6889 254.421 53.3906C254.143 53.0895 254.004 52.7131 254.004 52.2614C254.004 51.892 254.107 51.5653 254.315 51.2812C254.525 50.9972 254.81 50.7741 255.171 50.6122C255.535 50.4503 255.947 50.3693 256.407 50.3693C257.055 50.3693 257.563 50.5114 257.933 50.7955C258.305 51.0795 258.569 51.4545 258.725 51.9205ZM260.118 57V50.4545H261.124V57H260.118ZM260.63 49.3636C260.434 49.3636 260.265 49.2969 260.123 49.1634C259.983 49.0298 259.914 48.8693 259.914 48.6818C259.914 48.4943 259.983 48.3338 260.123 48.2003C260.265 48.0668 260.434 48 260.63 48C260.826 48 260.993 48.0668 261.133 48.2003C261.275 48.3338 261.346 48.4943 261.346 48.6818C261.346 48.8693 261.275 49.0298 261.133 49.1634C260.993 49.2969 260.826 49.3636 260.63 49.3636ZM265.385 57.1364C264.772 57.1364 264.243 56.9915 263.8 56.7017C263.357 56.4119 263.016 56.0128 262.777 55.5043C262.539 54.9957 262.419 54.4148 262.419 53.7614C262.419 53.0966 262.541 52.5099 262.786 52.0014C263.033 51.4901 263.377 51.0909 263.817 50.804C264.26 50.5142 264.777 50.3693 265.368 50.3693C265.828 50.3693 266.243 50.4545 266.612 50.625C266.982 50.7955 267.284 51.0341 267.52 51.3409C267.756 51.6477 267.902 52.0057 267.959 52.4148H266.953C266.877 52.1165 266.706 51.8523 266.442 51.6222C266.181 51.3892 265.828 51.2727 265.385 51.2727C264.993 51.2727 264.649 51.375 264.354 51.5795C264.061 51.7812 263.833 52.0668 263.668 52.4361C263.506 52.8026 263.425 53.233 263.425 53.7273C263.425 54.233 263.504 54.6733 263.664 55.0483C263.826 55.4233 264.053 55.7145 264.345 55.9219C264.641 56.1293 264.987 56.233 265.385 56.233C265.647 56.233 265.884 56.1875 266.097 56.0966C266.31 56.0057 266.49 55.875 266.638 55.7045C266.786 55.5341 266.891 55.3295 266.953 55.0909H267.959C267.902 55.4773 267.762 55.8253 267.537 56.1349C267.316 56.4418 267.022 56.6861 266.655 56.8679C266.291 57.0469 265.868 57.1364 265.385 57.1364Z" fill="#545F71"/>
<path d="M239.58 178.136C238.989 178.136 238.47 177.996 238.024 177.714C237.581 177.433 237.234 177.04 236.984 176.534C236.737 176.028 236.614 175.437 236.614 174.761C236.614 174.08 236.737 173.484 236.984 172.976C237.234 172.467 237.581 172.072 238.024 171.791C238.47 171.51 238.989 171.369 239.58 171.369C240.17 171.369 240.688 171.51 241.131 171.791C241.577 172.072 241.923 172.467 242.17 172.976C242.42 173.484 242.545 174.08 242.545 174.761C242.545 175.437 242.42 176.028 242.17 176.534C241.923 177.04 241.577 177.433 241.131 177.714C240.688 177.996 240.17 178.136 239.58 178.136ZM239.58 177.233C240.028 177.233 240.398 177.118 240.688 176.888C240.977 176.658 241.192 176.355 241.331 175.98C241.47 175.605 241.54 175.199 241.54 174.761C241.54 174.324 241.47 173.916 241.331 173.538C241.192 173.161 240.977 172.855 240.688 172.622C240.398 172.389 240.028 172.273 239.58 172.273C239.131 172.273 238.761 172.389 238.472 172.622C238.182 172.855 237.967 173.161 237.828 173.538C237.689 173.916 237.619 174.324 237.619 174.761C237.619 175.199 237.689 175.605 237.828 175.98C237.967 176.355 238.182 176.658 238.472 176.888C238.761 177.118 239.131 177.233 239.58 177.233ZM246.687 171.455V172.307H243.295V171.455H246.687ZM244.284 169.886H245.289V176.125C245.289 176.409 245.331 176.622 245.413 176.764C245.498 176.903 245.606 176.997 245.737 177.045C245.87 177.091 246.011 177.114 246.159 177.114C246.27 177.114 246.36 177.108 246.432 177.097C246.503 177.082 246.559 177.071 246.602 177.062L246.807 177.966C246.738 177.991 246.643 178.017 246.521 178.043C246.399 178.071 246.244 178.085 246.057 178.085C245.772 178.085 245.494 178.024 245.221 177.902C244.951 177.78 244.727 177.594 244.548 177.344C244.372 177.094 244.284 176.778 244.284 176.398V169.886ZM249.106 174.062V178H248.101V169.273H249.106V172.477H249.192C249.345 172.139 249.575 171.871 249.882 171.672C250.192 171.47 250.603 171.369 251.118 171.369C251.564 171.369 251.954 171.459 252.29 171.638C252.625 171.814 252.885 172.085 253.069 172.452C253.257 172.815 253.351 173.278 253.351 173.841V178H252.345V173.909C252.345 173.389 252.21 172.987 251.94 172.703C251.673 172.416 251.302 172.273 250.828 172.273C250.498 172.273 250.203 172.342 249.942 172.482C249.683 172.621 249.478 172.824 249.328 173.091C249.18 173.358 249.106 173.682 249.106 174.062ZM257.695 178.136C257.064 178.136 256.52 177.997 256.063 177.719C255.608 177.438 255.257 177.045 255.01 176.543C254.766 176.037 254.644 175.449 254.644 174.778C254.644 174.108 254.766 173.517 255.01 173.006C255.257 172.491 255.601 172.091 256.041 171.804C256.485 171.514 257.002 171.369 257.593 171.369C257.933 171.369 258.27 171.426 258.602 171.54C258.935 171.653 259.237 171.838 259.51 172.094C259.783 172.347 260 172.682 260.162 173.099C260.324 173.517 260.405 174.031 260.405 174.642V175.068H255.36V174.199H259.382C259.382 173.83 259.308 173.5 259.161 173.21C259.016 172.92 258.808 172.692 258.539 172.524C258.271 172.357 257.956 172.273 257.593 172.273C257.192 172.273 256.845 172.372 256.553 172.571C256.263 172.767 256.04 173.023 255.884 173.338C255.727 173.653 255.649 173.991 255.649 174.352V174.932C255.649 175.426 255.735 175.845 255.905 176.189C256.078 176.53 256.318 176.79 256.625 176.969C256.932 177.145 257.289 177.233 257.695 177.233C257.959 177.233 258.198 177.196 258.411 177.122C258.627 177.045 258.813 176.932 258.969 176.781C259.125 176.628 259.246 176.437 259.331 176.21L260.303 176.483C260.2 176.812 260.029 177.102 259.787 177.352C259.546 177.599 259.247 177.793 258.892 177.932C258.537 178.068 258.138 178.136 257.695 178.136ZM261.695 178V171.455H262.666V172.443H262.735C262.854 172.119 263.07 171.857 263.382 171.655C263.695 171.453 264.047 171.352 264.439 171.352C264.513 171.352 264.605 171.354 264.716 171.357C264.827 171.359 264.911 171.364 264.968 171.369V172.392C264.933 172.384 264.855 172.371 264.733 172.354C264.614 172.334 264.487 172.324 264.354 172.324C264.036 172.324 263.752 172.391 263.502 172.524C263.254 172.655 263.058 172.837 262.914 173.07C262.772 173.3 262.701 173.562 262.701 173.858V178H261.695Z" fill="#545F71"/>
<path d="M28.0926 57H26.9846L30.1892 48.2727H31.2801L34.4846 57H33.3767L30.7687 49.6534H30.7005L28.0926 57ZM28.5017 53.5909H32.9676V54.5284H28.5017V53.5909ZM35.4676 57V50.4545H36.4392V51.4432H36.5074C36.6267 51.1193 36.8426 50.8565 37.1551 50.6548C37.4676 50.4531 37.8199 50.3523 38.212 50.3523C38.2858 50.3523 38.3782 50.3537 38.4889 50.3565C38.5997 50.3594 38.6835 50.3636 38.7404 50.3693V51.392C38.7063 51.3835 38.6282 51.3707 38.506 51.3537C38.3867 51.3338 38.2603 51.3239 38.1267 51.3239C37.8085 51.3239 37.5245 51.3906 37.2745 51.5241C37.0273 51.6548 36.8313 51.8366 36.6864 52.0696C36.5443 52.2997 36.4733 52.5625 36.4733 52.858V57H35.4676ZM42.9492 50.4545V51.3068H39.5572V50.4545H42.9492ZM40.5458 48.8864H41.5515V55.125C41.5515 55.4091 41.5927 55.6222 41.6751 55.7642C41.7603 55.9034 41.8683 55.9972 41.9989 56.0455C42.1325 56.0909 42.2731 56.1136 42.4208 56.1136C42.5316 56.1136 42.6225 56.108 42.6935 56.0966C42.7646 56.0824 42.8214 56.071 42.864 56.0625L43.0685 56.9659C43.0004 56.9915 42.9052 57.017 42.783 57.0426C42.6609 57.071 42.506 57.0852 42.3185 57.0852C42.0345 57.0852 41.756 57.0241 41.4833 56.902C41.2134 56.7798 40.989 56.5938 40.81 56.3438C40.6339 56.0938 40.5458 55.7784 40.5458 55.3977V48.8864ZM52.2661 50.4545C52.215 50.0227 52.0076 49.6875 51.6439 49.4489C51.2803 49.2102 50.8343 49.0909 50.3059 49.0909C49.9195 49.0909 49.5814 49.1534 49.2917 49.2784C49.0047 49.4034 48.7803 49.5753 48.6184 49.794C48.4593 50.0128 48.3797 50.2614 48.3797 50.5398C48.3797 50.7727 48.4351 50.973 48.5459 51.1406C48.6596 51.3054 48.8045 51.4432 48.9806 51.554C49.1567 51.6619 49.3414 51.7514 49.5346 51.8224C49.7278 51.8906 49.9053 51.946 50.0672 51.9886L50.9536 52.2273C51.1809 52.2869 51.4337 52.3693 51.7121 52.4744C51.9934 52.5795 52.2618 52.723 52.5175 52.9048C52.7761 53.0838 52.9891 53.3139 53.1567 53.5952C53.3243 53.8764 53.4082 54.2216 53.4082 54.6307C53.4082 55.1023 53.2846 55.5284 53.0374 55.9091C52.7931 56.2898 52.4351 56.5923 51.9636 56.8168C51.4948 57.0412 50.9252 57.1534 50.2547 57.1534C49.6297 57.1534 49.0886 57.0526 48.6312 56.8509C48.1766 56.6491 47.8187 56.3679 47.5573 56.0071C47.2988 55.6463 47.1525 55.2273 47.1184 54.75H48.2093C48.2377 55.0795 48.3485 55.3523 48.5417 55.5682C48.7377 55.7812 48.9849 55.9403 49.2832 56.0455C49.5843 56.1477 49.9082 56.1989 50.2547 56.1989C50.6582 56.1989 51.0204 56.1335 51.3414 56.0028C51.6624 55.8693 51.9167 55.6847 52.1042 55.4489C52.2917 55.2102 52.3854 54.9318 52.3854 54.6136C52.3854 54.3239 52.3045 54.0881 52.1425 53.9062C51.9806 53.7244 51.7675 53.5767 51.5033 53.4631C51.2391 53.3494 50.9536 53.25 50.6468 53.1648L49.5729 52.858C48.8911 52.6619 48.3513 52.3821 47.9536 52.0185C47.5559 51.6548 47.357 51.179 47.357 50.5909C47.357 50.1023 47.4891 49.6761 47.7533 49.3125C48.0204 48.946 48.3783 48.6619 48.8272 48.4602C49.2789 48.2557 49.7832 48.1534 50.34 48.1534C50.9025 48.1534 51.4025 48.2543 51.84 48.456C52.2775 48.6548 52.6241 48.9276 52.8797 49.2741C53.1383 49.6207 53.2746 50.0142 53.2888 50.4545H52.2661ZM57.6159 50.4545V51.3068H54.2239V50.4545H57.6159ZM55.2125 48.8864H56.2182V55.125C56.2182 55.4091 56.2594 55.6222 56.3418 55.7642C56.427 55.9034 56.535 55.9972 56.6657 56.0455C56.7992 56.0909 56.9398 56.1136 57.0875 56.1136C57.1983 56.1136 57.2892 56.108 57.3603 56.0966C57.4313 56.0824 57.4881 56.071 57.5307 56.0625L57.7353 56.9659C57.6671 56.9915 57.5719 57.017 57.4498 57.0426C57.3276 57.071 57.1728 57.0852 56.9853 57.0852C56.7012 57.0852 56.4228 57.0241 56.15 56.902C55.8802 56.7798 55.6557 56.5938 55.4767 56.3438C55.3006 56.0938 55.2125 55.7784 55.2125 55.3977V48.8864ZM59.5365 59.4545C59.366 59.4545 59.214 59.4403 59.0805 59.4119C58.947 59.3864 58.8546 59.3608 58.8035 59.3352L59.0592 58.4489C59.3035 58.5114 59.5194 58.5341 59.7069 58.517C59.8944 58.5 60.0606 58.4162 60.2055 58.2656C60.3532 58.1179 60.4882 57.8778 60.6103 57.5455L60.7978 57.0341L58.3774 50.4545H59.4683L61.2751 55.6705H61.3433L63.1501 50.4545H64.241L61.4626 57.9545C61.3376 58.2926 61.1828 58.5724 60.9981 58.794C60.8134 59.0185 60.599 59.1847 60.3546 59.2926C60.1132 59.4006 59.8404 59.4545 59.5365 59.4545ZM66.3341 48.2727V57H65.3284V48.2727H66.3341ZM70.6804 57.1364C70.0497 57.1364 69.5057 56.9972 69.0483 56.7188C68.5938 56.4375 68.2429 56.0455 67.9957 55.5426C67.7514 55.0369 67.6293 54.4489 67.6293 53.7784C67.6293 53.108 67.7514 52.517 67.9957 52.0057C68.2429 51.4915 68.5866 51.0909 69.027 50.804C69.4702 50.5142 69.9872 50.3693 70.5781 50.3693C70.919 50.3693 71.2557 50.4261 71.5881 50.5398C71.9205 50.6534 72.223 50.8381 72.4957 51.0938C72.7685 51.3466 72.9858 51.6818 73.1477 52.0994C73.3097 52.517 73.3906 53.0312 73.3906 53.642V54.0682H68.3452V53.1989H72.3679C72.3679 52.8295 72.294 52.5 72.1463 52.2102C72.0014 51.9205 71.794 51.6918 71.5241 51.5241C71.2571 51.3565 70.9418 51.2727 70.5781 51.2727C70.1776 51.2727 69.831 51.3722 69.5384 51.571C69.2486 51.767 69.0256 52.0227 68.8693 52.3381C68.7131 52.6534 68.6349 52.9915 68.6349 53.3523V53.9318C68.6349 54.4261 68.7202 54.8452 68.8906 55.1889C69.0639 55.5298 69.304 55.7898 69.6108 55.9688C69.9176 56.1449 70.2741 56.233 70.6804 56.233C70.9446 56.233 71.1832 56.196 71.3963 56.1222C71.6122 56.0455 71.7983 55.9318 71.9545 55.7812C72.1108 55.6278 72.2315 55.4375 72.3168 55.2102L73.2884 55.483C73.1861 55.8125 73.0142 56.1023 72.7727 56.3523C72.5313 56.5994 72.233 56.7926 71.8778 56.9318C71.5227 57.0682 71.1236 57.1364 70.6804 57.1364Z" fill="#545F71"/>
<circle cx="158" cy="100" r="58" stroke="#0083FF" stroke-width="32"/>
<path fill-rule="evenodd" clip-rule="evenodd" d="M195.108 119.69C188.051 132.963 174.081 142 158 142C154.861 142 151.802 141.656 148.859 141.002L141.895 172.242C147.08 173.393 152.469 174 158 174C186.333 174 210.946 158.077 223.381 134.692L195.108 119.69Z" fill="#ADD7FF"/>
<path d="M158 26C198.869 26 232 59.1309 232 100C232 114.519 227.819 128.062 220.594 139.489L193.526 122.413C197.627 115.927 200 108.241 200 100C200 76.804 181.196 58 158 58V26Z" fill="#47A6FF"/>
<rect x="131" y="81" width="59" height="23" rx="4" fill="#EEF1F4"/>
<path d="M136.004 98V87.8182H142.527V89.3643H137.849V92.1286H142.08V93.6747H137.849V98H136.004ZM145.977 98.1541C145.493 98.1541 145.057 98.0679 144.669 97.8956C144.285 97.7199 143.98 97.4614 143.755 97.12C143.533 96.7786 143.422 96.3577 143.422 95.8572C143.422 95.4264 143.501 95.0701 143.66 94.7884C143.819 94.5066 144.036 94.2812 144.311 94.1122C144.587 93.9432 144.896 93.8156 145.241 93.7294C145.589 93.6399 145.949 93.5753 146.32 93.5355C146.767 93.4891 147.13 93.4477 147.409 93.4112C147.687 93.3714 147.889 93.3118 148.015 93.2322C148.145 93.1494 148.209 93.0218 148.209 92.8494V92.8196C148.209 92.4451 148.098 92.1551 147.876 91.9496C147.654 91.7441 147.334 91.6413 146.917 91.6413C146.476 91.6413 146.126 91.7375 145.868 91.9297C145.612 92.1219 145.44 92.349 145.351 92.6108L143.67 92.3722C143.803 91.9081 144.021 91.5204 144.326 91.2088C144.631 90.8939 145.004 90.6586 145.445 90.5028C145.886 90.3438 146.373 90.2642 146.907 90.2642C147.275 90.2642 147.641 90.3073 148.005 90.3935C148.37 90.4796 148.703 90.6222 149.005 90.821C149.306 91.0166 149.548 91.2834 149.73 91.6214C149.916 91.9595 150.009 92.3821 150.009 92.8892V98H148.279V96.951H148.219C148.11 97.1631 147.956 97.362 147.757 97.5476C147.561 97.7299 147.314 97.8774 147.016 97.9901C146.721 98.0994 146.375 98.1541 145.977 98.1541ZM146.444 96.8317C146.806 96.8317 147.119 96.7604 147.384 96.6179C147.649 96.4721 147.853 96.2798 147.995 96.0412C148.141 95.8026 148.214 95.5424 148.214 95.2607V94.3608C148.158 94.4072 148.062 94.4503 147.926 94.4901C147.793 94.5298 147.644 94.5646 147.478 94.5945C147.313 94.6243 147.149 94.6508 146.986 94.674C146.824 94.6972 146.683 94.7171 146.564 94.7337C146.295 94.7701 146.055 94.8298 145.843 94.9126C145.631 94.9955 145.463 95.1115 145.341 95.2607C145.218 95.4065 145.157 95.5954 145.157 95.8274C145.157 96.1589 145.278 96.4091 145.52 96.5781C145.761 96.7472 146.07 96.8317 146.444 96.8317ZM155.406 90.3636V91.7557H150.892V90.3636H155.406ZM152.021 98V89.6428C152.021 89.129 152.127 88.7015 152.339 88.3601C152.554 88.0187 152.843 87.7635 153.204 87.5945C153.565 87.4254 153.966 87.3409 154.407 87.3409C154.719 87.3409 154.995 87.3658 155.237 87.4155C155.479 87.4652 155.658 87.5099 155.774 87.5497L155.416 88.9418C155.34 88.9186 155.244 88.8954 155.128 88.8722C155.012 88.8456 154.883 88.8324 154.74 88.8324C154.405 88.8324 154.169 88.9136 154.029 89.076C153.893 89.2351 153.825 89.4638 153.825 89.7621V98H152.021ZM159.58 98.1491C158.834 98.1491 158.188 97.9851 157.641 97.657C157.094 97.3288 156.67 96.8698 156.368 96.2798C156.07 95.6899 155.921 95.0005 155.921 94.2116C155.921 93.4228 156.07 92.7318 156.368 92.1385C156.67 91.5452 157.094 91.0845 157.641 90.7564C158.188 90.4283 158.834 90.2642 159.58 90.2642C160.325 90.2642 160.972 90.4283 161.519 90.7564C162.066 91.0845 162.488 91.5452 162.786 92.1385C163.088 92.7318 163.239 93.4228 163.239 94.2116C163.239 95.0005 163.088 95.6899 162.786 96.2798C162.488 96.8698 162.066 97.3288 161.519 97.657C160.972 97.9851 160.325 98.1491 159.58 98.1491ZM159.59 96.7074C159.994 96.7074 160.332 96.5964 160.604 96.3743C160.876 96.1489 161.078 95.8473 161.21 95.4695C161.346 95.0916 161.414 94.6707 161.414 94.2067C161.414 93.7393 161.346 93.3168 161.21 92.9389C161.078 92.5578 160.876 92.2545 160.604 92.0291C160.332 91.8037 159.994 91.6911 159.59 91.6911C159.175 91.6911 158.831 91.8037 158.556 92.0291C158.284 92.2545 158.08 92.5578 157.944 92.9389C157.812 93.3168 157.745 93.7393 157.745 94.2067C157.745 94.6707 157.812 95.0916 157.944 95.4695C158.08 95.8473 158.284 96.1489 158.556 96.3743C158.831 96.5964 159.175 96.7074 159.59 96.7074ZM164.486 98V90.3636H166.231V91.6364H166.311C166.45 91.1955 166.689 90.8558 167.027 90.6172C167.368 90.3752 167.758 90.2543 168.195 90.2543C168.295 90.2543 168.406 90.2592 168.528 90.2692C168.654 90.2758 168.759 90.2874 168.841 90.304V91.9595C168.765 91.933 168.644 91.9098 168.479 91.8899C168.316 91.8667 168.159 91.8551 168.006 91.8551C167.678 91.8551 167.383 91.9264 167.121 92.0689C166.863 92.2081 166.659 92.402 166.51 92.6506C166.361 92.8991 166.286 93.1858 166.286 93.5107V98H164.486ZM169.757 98V90.3636H171.557V98H169.757ZM170.662 89.2798C170.377 89.2798 170.132 89.1854 169.926 88.9964C169.721 88.8042 169.618 88.5739 169.618 88.3054C169.618 88.0336 169.721 87.8033 169.926 87.6143C170.132 87.4221 170.377 87.326 170.662 87.326C170.95 87.326 171.196 87.4221 171.398 87.6143C171.603 87.8033 171.706 88.0336 171.706 88.3054C171.706 88.5739 171.603 88.8042 171.398 88.9964C171.196 89.1854 170.95 89.2798 170.662 89.2798ZM176.941 90.3636V91.7557H172.551V90.3636H176.941ZM173.635 88.5341H175.434V95.7031C175.434 95.9451 175.471 96.1307 175.544 96.2599C175.62 96.3859 175.719 96.4721 175.842 96.5185C175.965 96.5649 176.101 96.5881 176.25 96.5881C176.362 96.5881 176.465 96.5798 176.558 96.5632C176.654 96.5466 176.727 96.5317 176.777 96.5185L177.08 97.9254C176.984 97.9586 176.846 97.995 176.667 98.0348C176.492 98.0746 176.276 98.0978 176.021 98.1044C175.57 98.1177 175.164 98.0497 174.803 97.9006C174.442 97.7481 174.155 97.5128 173.943 97.1946C173.734 96.8764 173.631 96.4787 173.635 96.0014V88.5341ZM181.465 98.1491C180.699 98.1491 180.038 97.9901 179.481 97.6719C178.927 97.3504 178.501 96.8963 178.203 96.3097C177.905 95.7197 177.756 95.0253 177.756 94.2266C177.756 93.4411 177.905 92.7517 178.203 92.1584C178.505 91.5618 178.926 91.0978 179.466 90.7663C180.006 90.4316 180.641 90.2642 181.37 90.2642C181.841 90.2642 182.285 90.3404 182.702 90.4929C183.123 90.642 183.495 90.8741 183.816 91.1889C184.141 91.5038 184.396 91.9048 184.582 92.392C184.767 92.8759 184.86 93.4527 184.86 94.1222V94.674H178.601V93.4609H183.135C183.132 93.1162 183.057 92.8097 182.911 92.5412C182.765 92.2694 182.562 92.0556 182.3 91.8999C182.041 91.7441 181.74 91.6662 181.395 91.6662C181.027 91.6662 180.704 91.7557 180.425 91.9347C180.147 92.1103 179.93 92.3423 179.774 92.6307C179.622 92.9157 179.544 93.2289 179.541 93.5703V94.6293C179.541 95.0734 179.622 95.4545 179.784 95.7727C179.947 96.0876 180.174 96.3295 180.465 96.4986C180.757 96.6643 181.098 96.7472 181.489 96.7472C181.751 96.7472 181.988 96.7107 182.2 96.6378C182.412 96.5616 182.596 96.4505 182.752 96.3047C182.908 96.1589 183.026 95.9782 183.105 95.7628L184.786 95.9517C184.68 96.3958 184.477 96.7836 184.179 97.1151C183.884 97.4432 183.506 97.6984 183.046 97.8807C182.585 98.0597 182.058 98.1491 181.465 98.1491Z" fill="#545F71"/>
</svg>
