<svg width="405" height="232" viewBox="0 0 405 232" fill="none" xmlns="http://www.w3.org/2000/svg">
<g filter="url(#filter0_d_21_96)">
<path d="M4 219C4 221.761 6.23858 224 9 224H396C398.761 224 401 221.761 401 219V4.99998C401 2.23856 398.761 -1.52588e-05 396 -1.52588e-05H9C6.23858 -1.52588e-05 4 2.23857 4 4.99998V219Z" fill="white"/>
</g>
<path d="M229 120C229 105.088 216.688 93 201.5 93C186.312 93 174 105.088 174 120C174 134.912 186.312 147 201.5 147C216.688 147 229 134.912 229 120ZM229 120V130.125C229 139.445 236.695 147 246.188 147C255.68 147 263.375 139.445 263.375 130.125V120C263.375 86.4487 235.673 59.25 201.5 59.25C167.327 59.25 139.625 86.4487 139.625 120C139.625 153.551 167.327 180.75 201.5 180.75M232.438 172.611C222.675 178.145 212.016 180.77 201.5 180.76" stroke="#3992E6" stroke-width="10" stroke-linecap="round" stroke-linejoin="round"/>
<path d="M110.906 19.2227H112.371C112.324 19.7812 112.168 20.2793 111.902 20.7168C111.637 21.1504 111.264 21.4922 110.783 21.7422C110.303 21.9922 109.719 22.1172 109.031 22.1172C108.504 22.1172 108.029 22.0234 107.607 21.8359C107.186 21.6445 106.824 21.375 106.523 21.0273C106.223 20.6758 105.992 20.252 105.832 19.7559C105.676 19.2598 105.598 18.7051 105.598 18.0918V17.3828C105.598 16.7695 105.678 16.2148 105.838 15.7188C106.002 15.2227 106.236 14.7988 106.541 14.4473C106.846 14.0918 107.211 13.8203 107.637 13.6328C108.066 13.4453 108.549 13.3516 109.084 13.3516C109.764 13.3516 110.338 13.4766 110.807 13.7266C111.275 13.9766 111.639 14.3223 111.896 14.7637C112.158 15.2051 112.318 15.7109 112.377 16.2812H110.912C110.873 15.9141 110.787 15.5996 110.654 15.3379C110.525 15.0762 110.334 14.877 110.08 14.7402C109.826 14.5996 109.494 14.5293 109.084 14.5293C108.748 14.5293 108.455 14.5918 108.205 14.7168C107.955 14.8418 107.746 15.0254 107.578 15.2676C107.41 15.5098 107.283 15.8086 107.197 16.1641C107.115 16.5156 107.074 16.918 107.074 17.3711V18.0918C107.074 18.5215 107.111 18.9121 107.186 19.2637C107.264 19.6113 107.381 19.9102 107.537 20.1602C107.697 20.4102 107.9 20.6035 108.146 20.7402C108.393 20.877 108.688 20.9453 109.031 20.9453C109.449 20.9453 109.787 20.8789 110.045 20.7461C110.307 20.6133 110.504 20.4199 110.637 20.166C110.773 19.9082 110.863 19.5938 110.906 19.2227ZM113.897 18.9004V18.7656C113.897 18.3086 113.963 17.8848 114.096 17.4941C114.229 17.0996 114.42 16.7578 114.67 16.4688C114.924 16.1758 115.233 15.9492 115.596 15.7891C115.963 15.625 116.377 15.543 116.838 15.543C117.303 15.543 117.717 15.625 118.08 15.7891C118.448 15.9492 118.758 16.1758 119.012 16.4688C119.266 16.7578 119.459 17.0996 119.592 17.4941C119.725 17.8848 119.791 18.3086 119.791 18.7656V18.9004C119.791 19.3574 119.725 19.7812 119.592 20.1719C119.459 20.5625 119.266 20.9043 119.012 21.1973C118.758 21.4863 118.45 21.7129 118.086 21.877C117.723 22.0371 117.311 22.1172 116.85 22.1172C116.385 22.1172 115.969 22.0371 115.602 21.877C115.239 21.7129 114.93 21.4863 114.676 21.1973C114.422 20.9043 114.229 20.5625 114.096 20.1719C113.963 19.7812 113.897 19.3574 113.897 18.9004ZM115.309 18.7656V18.9004C115.309 19.1855 115.338 19.4551 115.397 19.709C115.455 19.9629 115.547 20.1855 115.672 20.377C115.797 20.5684 115.957 20.7188 116.153 20.8281C116.348 20.9375 116.58 20.9922 116.85 20.9922C117.112 20.9922 117.338 20.9375 117.53 20.8281C117.725 20.7188 117.885 20.5684 118.01 20.377C118.135 20.1855 118.227 19.9629 118.286 19.709C118.348 19.4551 118.379 19.1855 118.379 18.9004V18.7656C118.379 18.4844 118.348 18.2188 118.286 17.9688C118.227 17.7148 118.133 17.4902 118.004 17.2949C117.879 17.0996 117.719 16.9473 117.524 16.8379C117.332 16.7246 117.104 16.668 116.838 16.668C116.573 16.668 116.342 16.7246 116.147 16.8379C115.955 16.9473 115.797 17.0996 115.672 17.2949C115.547 17.4902 115.455 17.7148 115.397 17.9688C115.338 18.2188 115.309 18.4844 115.309 18.7656ZM122.993 16.8789V24.4375H121.581V15.6602H122.882L122.993 16.8789ZM127.124 18.7715V18.8945C127.124 19.3555 127.069 19.7832 126.96 20.1777C126.854 20.5684 126.696 20.9102 126.485 21.2031C126.278 21.4922 126.022 21.7168 125.718 21.877C125.413 22.0371 125.061 22.1172 124.663 22.1172C124.268 22.1172 123.923 22.0449 123.626 21.9004C123.333 21.752 123.085 21.543 122.882 21.2734C122.679 21.0039 122.514 20.6875 122.389 20.3242C122.268 19.957 122.182 19.5547 122.132 19.1172V18.6426C122.182 18.1777 122.268 17.7559 122.389 17.377C122.514 16.998 122.679 16.6719 122.882 16.3984C123.085 16.125 123.333 15.9141 123.626 15.7656C123.919 15.6172 124.261 15.543 124.651 15.543C125.05 15.543 125.403 15.6211 125.712 15.7773C126.02 15.9297 126.28 16.1484 126.491 16.4336C126.702 16.7148 126.86 17.0547 126.966 17.4531C127.071 17.8477 127.124 18.2871 127.124 18.7715ZM125.712 18.8945V18.7715C125.712 18.4785 125.684 18.207 125.63 17.957C125.575 17.7031 125.489 17.4805 125.372 17.2891C125.255 17.0977 125.104 16.9492 124.921 16.8438C124.741 16.7344 124.524 16.6797 124.27 16.6797C124.02 16.6797 123.805 16.7227 123.626 16.8086C123.446 16.8906 123.296 17.0059 123.175 17.1543C123.054 17.3027 122.96 17.4766 122.893 17.6758C122.827 17.8711 122.78 18.084 122.753 18.3145V19.4512C122.8 19.7324 122.88 19.9902 122.993 20.2246C123.106 20.459 123.266 20.6465 123.473 20.7871C123.684 20.9238 123.954 20.9922 124.282 20.9922C124.536 20.9922 124.753 20.9375 124.932 20.8281C125.112 20.7188 125.259 20.5684 125.372 20.377C125.489 20.1816 125.575 19.957 125.63 19.7031C125.684 19.4492 125.712 19.1797 125.712 18.8945ZM130.695 21.3086L132.417 15.6602H133.929L131.386 22.9668C131.327 23.123 131.251 23.293 131.157 23.4766C131.064 23.6602 130.941 23.834 130.788 23.998C130.64 24.166 130.454 24.3008 130.232 24.4023C130.009 24.5078 129.739 24.5605 129.423 24.5605C129.298 24.5605 129.177 24.5488 129.06 24.5254C128.946 24.5059 128.839 24.4844 128.737 24.4609L128.732 23.3828C128.771 23.3867 128.818 23.3906 128.872 23.3945C128.931 23.3984 128.978 23.4004 129.013 23.4004C129.247 23.4004 129.443 23.3711 129.599 23.3125C129.755 23.2578 129.882 23.168 129.98 23.043C130.081 22.918 130.167 22.75 130.237 22.5391L130.695 21.3086ZM129.722 15.6602L131.228 20.4062L131.48 21.8945L130.501 22.1465L128.198 15.6602H129.722ZM136.755 16.8672V22H135.343V15.6602H136.691L136.755 16.8672ZM138.695 15.6191L138.683 16.9316C138.597 16.916 138.504 16.9043 138.402 16.8965C138.304 16.8887 138.207 16.8848 138.109 16.8848C137.867 16.8848 137.654 16.9199 137.47 16.9902C137.287 17.0566 137.132 17.1543 137.007 17.2832C136.886 17.4082 136.793 17.5605 136.726 17.7402C136.66 17.9199 136.621 18.1211 136.609 18.3438L136.287 18.3672C136.287 17.9688 136.326 17.5996 136.404 17.2598C136.482 16.9199 136.599 16.6211 136.755 16.3633C136.916 16.1055 137.115 15.9043 137.353 15.7598C137.595 15.6152 137.875 15.543 138.191 15.543C138.277 15.543 138.369 15.5508 138.466 15.5664C138.568 15.582 138.644 15.5996 138.695 15.6191ZM141.691 15.6602V22H140.273V15.6602H141.691ZM140.18 13.9961C140.18 13.7812 140.25 13.6035 140.391 13.4629C140.535 13.3184 140.734 13.2461 140.988 13.2461C141.238 13.2461 141.436 13.3184 141.58 13.4629C141.725 13.6035 141.797 13.7812 141.797 13.9961C141.797 14.207 141.725 14.3828 141.58 14.5234C141.436 14.6641 141.238 14.7344 140.988 14.7344C140.734 14.7344 140.535 14.6641 140.391 14.5234C140.25 14.3828 140.18 14.207 140.18 13.9961ZM147.899 15.6602H149.182V21.8242C149.182 22.3945 149.061 22.8789 148.819 23.2773C148.577 23.6758 148.239 23.9785 147.805 24.1855C147.371 24.3965 146.87 24.502 146.299 24.502C146.057 24.502 145.787 24.4668 145.491 24.3965C145.198 24.3262 144.912 24.2129 144.635 24.0566C144.362 23.9043 144.133 23.7031 143.95 23.4531L144.612 22.6211C144.838 22.8906 145.088 23.0879 145.362 23.2129C145.635 23.3379 145.922 23.4004 146.223 23.4004C146.547 23.4004 146.823 23.3398 147.049 23.2188C147.28 23.1016 147.457 22.9277 147.582 22.6973C147.707 22.4668 147.77 22.1855 147.77 21.8535V17.0957L147.899 15.6602ZM143.592 18.9004V18.7773C143.592 18.2969 143.651 17.8594 143.768 17.4648C143.885 17.0664 144.053 16.7246 144.272 16.4395C144.491 16.1504 144.756 15.9297 145.069 15.7773C145.381 15.6211 145.735 15.543 146.129 15.543C146.539 15.543 146.889 15.6172 147.178 15.7656C147.471 15.9141 147.715 16.127 147.911 16.4043C148.106 16.6777 148.258 17.0059 148.368 17.3887C148.481 17.7676 148.565 18.1895 148.62 18.6543V19.0469C148.569 19.5 148.483 19.9141 148.362 20.2891C148.241 20.6641 148.08 20.9883 147.881 21.2617C147.682 21.5352 147.436 21.7461 147.143 21.8945C146.854 22.043 146.512 22.1172 146.118 22.1172C145.731 22.1172 145.381 22.0371 145.069 21.877C144.76 21.7168 144.495 21.4922 144.272 21.2031C144.053 20.9141 143.885 20.5742 143.768 20.1836C143.651 19.7891 143.592 19.3613 143.592 18.9004ZM145.004 18.7773V18.9004C145.004 19.1895 145.032 19.459 145.086 19.709C145.145 19.959 145.233 20.1797 145.35 20.3711C145.471 20.5586 145.623 20.707 145.807 20.8164C145.995 20.9219 146.215 20.9746 146.469 20.9746C146.801 20.9746 147.073 20.9043 147.284 20.7637C147.498 20.623 147.662 20.4336 147.776 20.1953C147.893 19.9531 147.975 19.6836 148.022 19.3867V18.3262C147.998 18.0957 147.95 17.8809 147.875 17.6816C147.805 17.4824 147.709 17.3086 147.588 17.1602C147.467 17.0078 147.315 16.8906 147.131 16.8086C146.948 16.7227 146.731 16.6797 146.481 16.6797C146.227 16.6797 146.006 16.7344 145.819 16.8438C145.631 16.9531 145.477 17.1035 145.356 17.2949C145.239 17.4863 145.151 17.709 145.092 17.9629C145.034 18.2168 145.004 18.4883 145.004 18.7773ZM152.641 13V22H151.235V13H152.641ZM152.395 18.5957L151.938 18.5898C151.942 18.1523 152.003 17.748 152.12 17.377C152.241 17.0059 152.409 16.6836 152.624 16.4102C152.843 16.1328 153.104 15.9199 153.409 15.7715C153.714 15.6191 154.052 15.543 154.423 15.543C154.735 15.543 155.016 15.5859 155.266 15.6719C155.52 15.7578 155.739 15.8965 155.923 16.0879C156.106 16.2754 156.245 16.5215 156.339 16.8262C156.436 17.127 156.485 17.4941 156.485 17.9277V22H155.067V17.916C155.067 17.6113 155.022 17.3691 154.932 17.1895C154.846 17.0098 154.72 16.8809 154.552 16.8027C154.384 16.7207 154.179 16.6797 153.936 16.6797C153.682 16.6797 153.458 16.7305 153.263 16.832C153.071 16.9336 152.911 17.0723 152.782 17.248C152.653 17.4238 152.555 17.627 152.489 17.8574C152.427 18.0879 152.395 18.334 152.395 18.5957ZM161.421 15.6602V16.6914H157.847V15.6602H161.421ZM158.878 14.1074H160.29V20.248C160.29 20.4434 160.318 20.5938 160.372 20.6992C160.431 20.8008 160.511 20.8691 160.612 20.9043C160.714 20.9395 160.833 20.957 160.97 20.957C161.068 20.957 161.161 20.9512 161.251 20.9395C161.341 20.9277 161.413 20.916 161.468 20.9043L161.474 21.9824C161.357 22.0176 161.22 22.0488 161.064 22.0762C160.911 22.1035 160.736 22.1172 160.536 22.1172C160.212 22.1172 159.925 22.0605 159.675 21.9473C159.425 21.8301 159.23 21.6406 159.089 21.3789C158.948 21.1172 158.878 20.7695 158.878 20.3359V14.1074ZM170.039 18.1445H167.865L167.854 17.0723H169.752C170.072 17.0723 170.344 17.0254 170.566 16.9316C170.793 16.834 170.965 16.6953 171.082 16.5156C171.199 16.332 171.258 16.1113 171.258 15.8535C171.258 15.5684 171.203 15.3359 171.094 15.1562C170.984 14.9766 170.816 14.8457 170.59 14.7637C170.367 14.6816 170.082 14.6406 169.734 14.6406H168.311V22H166.84V13.4688H169.734C170.203 13.4688 170.621 13.5137 170.988 13.6035C171.359 13.6934 171.674 13.834 171.932 14.0254C172.193 14.2129 172.391 14.4512 172.523 14.7402C172.66 15.0293 172.729 15.373 172.729 15.7715C172.729 16.123 172.645 16.4453 172.477 16.7383C172.309 17.0273 172.061 17.2637 171.732 17.4473C171.404 17.6309 170.996 17.7402 170.508 17.7754L170.039 18.1445ZM169.975 22H167.402L168.064 20.834H169.975C170.307 20.834 170.584 20.7793 170.807 20.6699C171.029 20.5566 171.195 20.4023 171.305 20.207C171.418 20.0078 171.475 19.7754 171.475 19.5098C171.475 19.2324 171.426 18.9922 171.328 18.7891C171.23 18.582 171.076 18.4238 170.865 18.3145C170.654 18.2012 170.379 18.1445 170.039 18.1445H168.387L168.398 17.0723H170.549L170.883 17.4766C171.352 17.4922 171.736 17.5957 172.037 17.7871C172.342 17.9785 172.568 18.2266 172.717 18.5312C172.865 18.8359 172.939 19.1641 172.939 19.5156C172.939 20.0586 172.82 20.5137 172.582 20.8809C172.348 21.248 172.01 21.5273 171.568 21.7188C171.127 21.9062 170.596 22 169.975 22ZM176.721 21.3086L178.444 15.6602H179.955L177.412 22.9668C177.354 23.123 177.278 23.293 177.184 23.4766C177.09 23.6602 176.967 23.834 176.815 23.998C176.666 24.166 176.481 24.3008 176.258 24.4023C176.036 24.5078 175.766 24.5605 175.45 24.5605C175.325 24.5605 175.204 24.5488 175.086 24.5254C174.973 24.5059 174.866 24.4844 174.764 24.4609L174.758 23.3828C174.797 23.3867 174.844 23.3906 174.899 23.3945C174.957 23.3984 175.004 23.4004 175.039 23.4004C175.274 23.4004 175.469 23.3711 175.625 23.3125C175.782 23.2578 175.909 23.168 176.006 23.043C176.108 22.918 176.194 22.75 176.264 22.5391L176.721 21.3086ZM175.748 15.6602L177.254 20.4062L177.506 21.8945L176.528 22.1465L174.225 15.6602H175.748ZM181.382 21.2969C181.382 21.0781 181.456 20.8945 181.604 20.7461C181.753 20.5938 181.954 20.5176 182.208 20.5176C182.466 20.5176 182.667 20.5938 182.811 20.7461C182.96 20.8945 183.034 21.0781 183.034 21.2969C183.034 21.5156 182.96 21.6992 182.811 21.8477C182.667 21.9961 182.466 22.0703 182.208 22.0703C181.954 22.0703 181.753 21.9961 181.604 21.8477C181.456 21.6992 181.382 21.5156 181.382 21.2969ZM181.387 16.3047C181.387 16.0859 181.462 15.9023 181.61 15.7539C181.759 15.6016 181.96 15.5254 182.214 15.5254C182.471 15.5254 182.673 15.6016 182.817 15.7539C182.966 15.9023 183.04 16.0859 183.04 16.3047C183.04 16.5234 182.966 16.707 182.817 16.8555C182.673 17.0039 182.471 17.0781 182.214 17.0781C181.96 17.0781 181.759 17.0039 181.61 16.8555C181.462 16.707 181.387 16.5234 181.387 16.3047ZM189.455 13.4688H190.767L193.234 20.0488L195.695 13.4688H197.007L193.75 22H192.707L189.455 13.4688ZM188.857 13.4688H190.105L190.322 19.1641V22H188.857V13.4688ZM196.357 13.4688H197.611V22H196.14V19.1641L196.357 13.4688ZM203.631 20.5059V15.6602H205.049V22H203.713L203.631 20.5059ZM203.83 19.1875L204.305 19.1758C204.305 19.6016 204.258 19.9941 204.164 20.3535C204.07 20.709 203.926 21.0195 203.73 21.2852C203.535 21.5469 203.285 21.752 202.98 21.9004C202.676 22.0449 202.311 22.1172 201.885 22.1172C201.576 22.1172 201.293 22.0723 201.035 21.9824C200.777 21.8926 200.555 21.7539 200.367 21.5664C200.184 21.3789 200.041 21.1348 199.939 20.834C199.838 20.5332 199.787 20.1738 199.787 19.7559V15.6602H201.199V19.7676C201.199 19.998 201.227 20.1914 201.281 20.3477C201.336 20.5 201.41 20.623 201.504 20.7168C201.598 20.8105 201.707 20.877 201.832 20.916C201.957 20.9551 202.09 20.9746 202.23 20.9746C202.633 20.9746 202.949 20.8965 203.18 20.7402C203.414 20.5801 203.58 20.3652 203.678 20.0957C203.779 19.8262 203.83 19.5234 203.83 19.1875ZM208.491 13V22H207.084V13H208.491ZM208.245 18.5957L207.787 18.5898C207.791 18.1523 207.852 17.748 207.969 17.377C208.09 17.0059 208.258 16.6836 208.473 16.4102C208.692 16.1328 208.954 15.9199 209.258 15.7715C209.563 15.6191 209.901 15.543 210.272 15.543C210.584 15.543 210.866 15.5859 211.116 15.6719C211.37 15.7578 211.588 15.8965 211.772 16.0879C211.955 16.2754 212.094 16.5215 212.188 16.8262C212.286 17.127 212.334 17.4941 212.334 17.9277V22H210.916V17.916C210.916 17.6113 210.871 17.3691 210.782 17.1895C210.696 17.0098 210.569 16.8809 210.401 16.8027C210.233 16.7207 210.028 16.6797 209.786 16.6797C209.532 16.6797 209.307 16.7305 209.112 16.832C208.92 16.9336 208.76 17.0723 208.631 17.248C208.502 17.4238 208.405 17.627 208.338 17.8574C208.276 18.0879 208.245 18.334 208.245 18.5957ZM217.938 20.7285V17.7051C217.938 17.4785 217.897 17.2832 217.815 17.1191C217.733 16.9551 217.608 16.8281 217.44 16.7383C217.276 16.6484 217.069 16.6035 216.819 16.6035C216.589 16.6035 216.389 16.6426 216.221 16.7207C216.054 16.7988 215.923 16.9043 215.829 17.0371C215.735 17.1699 215.688 17.3203 215.688 17.4883H214.282C214.282 17.2383 214.343 16.9961 214.464 16.7617C214.585 16.5273 214.761 16.3184 214.991 16.1348C215.221 15.9512 215.497 15.8066 215.817 15.7012C216.137 15.5957 216.497 15.543 216.895 15.543C217.372 15.543 217.794 15.623 218.161 15.7832C218.532 15.9434 218.823 16.1855 219.034 16.5098C219.249 16.8301 219.356 17.2324 219.356 17.7168V20.5352C219.356 20.8242 219.376 21.084 219.415 21.3145C219.458 21.541 219.518 21.7383 219.596 21.9062V22H218.149C218.083 21.8477 218.03 21.6543 217.991 21.4199C217.956 21.1816 217.938 20.9512 217.938 20.7285ZM218.143 18.1445L218.155 19.0176H217.141C216.88 19.0176 216.649 19.043 216.45 19.0938C216.251 19.1406 216.085 19.2109 215.952 19.3047C215.819 19.3984 215.72 19.5117 215.653 19.6445C215.587 19.7773 215.554 19.9277 215.554 20.0957C215.554 20.2637 215.593 20.418 215.671 20.5586C215.749 20.6953 215.862 20.8027 216.011 20.8809C216.163 20.959 216.346 20.998 216.561 20.998C216.85 20.998 217.102 20.9395 217.317 20.8223C217.536 20.7012 217.708 20.5547 217.833 20.3828C217.958 20.207 218.024 20.041 218.032 19.8848L218.489 20.5117C218.442 20.6719 218.362 20.8438 218.249 21.0273C218.136 21.2109 217.987 21.3867 217.804 21.5547C217.624 21.7188 217.407 21.8535 217.153 21.959C216.903 22.0645 216.614 22.1172 216.286 22.1172C215.872 22.1172 215.503 22.0352 215.179 21.8711C214.854 21.7031 214.6 21.4785 214.417 21.1973C214.233 20.9121 214.141 20.5898 214.141 20.2305C214.141 19.8945 214.204 19.5977 214.329 19.3398C214.458 19.0781 214.645 18.8594 214.891 18.6836C215.141 18.5078 215.446 18.375 215.805 18.2852C216.165 18.1914 216.575 18.1445 217.036 18.1445H218.143ZM222.845 16.9492V22H221.433V15.6602H222.763L222.845 16.9492ZM222.616 18.5957L222.136 18.5898C222.136 18.1523 222.191 17.748 222.3 17.377C222.409 17.0059 222.57 16.6836 222.78 16.4102C222.991 16.1328 223.253 15.9199 223.566 15.7715C223.882 15.6191 224.247 15.543 224.661 15.543C224.95 15.543 225.214 15.5859 225.452 15.6719C225.695 15.7539 225.904 15.8848 226.079 16.0645C226.259 16.2441 226.396 16.4746 226.489 16.7559C226.587 17.0371 226.636 17.377 226.636 17.7754V22H225.224V17.8984C225.224 17.5898 225.177 17.3477 225.083 17.1719C224.993 16.9961 224.863 16.8711 224.691 16.7969C224.523 16.7188 224.321 16.6797 224.087 16.6797C223.821 16.6797 223.595 16.7305 223.407 16.832C223.224 16.9336 223.073 17.0723 222.956 17.248C222.839 17.4238 222.753 17.627 222.698 17.8574C222.644 18.0879 222.616 18.334 222.616 18.5957ZM226.548 18.2207L225.886 18.3672C225.886 17.9844 225.939 17.623 226.044 17.2832C226.154 16.9395 226.312 16.6387 226.519 16.3809C226.73 16.1191 226.989 15.9141 227.298 15.7656C227.607 15.6172 227.96 15.543 228.359 15.543C228.683 15.543 228.972 15.5879 229.226 15.6777C229.484 15.7637 229.702 15.9004 229.882 16.0879C230.062 16.2754 230.198 16.5195 230.292 16.8203C230.386 17.1172 230.433 17.4766 230.433 17.8984V22H229.015V17.8926C229.015 17.5723 228.968 17.3242 228.874 17.1484C228.784 16.9727 228.655 16.8516 228.488 16.7852C228.32 16.7148 228.118 16.6797 227.884 16.6797C227.665 16.6797 227.472 16.7207 227.304 16.8027C227.14 16.8809 227.001 16.9922 226.888 17.1367C226.775 17.2773 226.689 17.4395 226.63 17.623C226.575 17.8066 226.548 18.0059 226.548 18.2207ZM233.898 16.9492V22H232.486V15.6602H233.816L233.898 16.9492ZM233.67 18.5957L233.189 18.5898C233.189 18.1523 233.244 17.748 233.353 17.377C233.463 17.0059 233.623 16.6836 233.834 16.4102C234.045 16.1328 234.306 15.9199 234.619 15.7715C234.935 15.6191 235.3 15.543 235.714 15.543C236.004 15.543 236.267 15.5859 236.505 15.6719C236.748 15.7539 236.957 15.8848 237.132 16.0645C237.312 16.2441 237.449 16.4746 237.543 16.7559C237.64 17.0371 237.689 17.377 237.689 17.7754V22H236.277V17.8984C236.277 17.5898 236.23 17.3477 236.136 17.1719C236.046 16.9961 235.916 16.8711 235.744 16.7969C235.576 16.7188 235.375 16.6797 235.14 16.6797C234.875 16.6797 234.648 16.7305 234.461 16.832C234.277 16.9336 234.127 17.0723 234.009 17.248C233.892 17.4238 233.806 17.627 233.752 17.8574C233.697 18.0879 233.67 18.334 233.67 18.5957ZM237.601 18.2207L236.939 18.3672C236.939 17.9844 236.992 17.623 237.097 17.2832C237.207 16.9395 237.365 16.6387 237.572 16.3809C237.783 16.1191 238.043 15.9141 238.351 15.7656C238.66 15.6172 239.013 15.543 239.412 15.543C239.736 15.543 240.025 15.5879 240.279 15.6777C240.537 15.7637 240.755 15.9004 240.935 16.0879C241.115 16.2754 241.252 16.5195 241.345 16.8203C241.439 17.1172 241.486 17.4766 241.486 17.8984V22H240.068V17.8926C240.068 17.5723 240.021 17.3242 239.927 17.1484C239.838 16.9727 239.709 16.8516 239.541 16.7852C239.373 16.7148 239.171 16.6797 238.937 16.6797C238.718 16.6797 238.525 16.7207 238.357 16.8027C238.193 16.8809 238.054 16.9922 237.941 17.1367C237.828 17.2773 237.742 17.4395 237.683 17.623C237.629 17.8066 237.601 18.0059 237.601 18.2207ZM247.113 20.7285V17.7051C247.113 17.4785 247.072 17.2832 246.99 17.1191C246.908 16.9551 246.783 16.8281 246.615 16.7383C246.451 16.6484 246.244 16.6035 245.994 16.6035C245.764 16.6035 245.564 16.6426 245.396 16.7207C245.229 16.7988 245.098 16.9043 245.004 17.0371C244.91 17.1699 244.863 17.3203 244.863 17.4883H243.457C243.457 17.2383 243.518 16.9961 243.639 16.7617C243.76 16.5273 243.936 16.3184 244.166 16.1348C244.396 15.9512 244.672 15.8066 244.992 15.7012C245.312 15.5957 245.672 15.543 246.07 15.543C246.547 15.543 246.969 15.623 247.336 15.7832C247.707 15.9434 247.998 16.1855 248.209 16.5098C248.424 16.8301 248.531 17.2324 248.531 17.7168V20.5352C248.531 20.8242 248.551 21.084 248.59 21.3145C248.633 21.541 248.693 21.7383 248.771 21.9062V22H247.324C247.258 21.8477 247.205 21.6543 247.166 21.4199C247.131 21.1816 247.113 20.9512 247.113 20.7285ZM247.318 18.1445L247.33 19.0176H246.316C246.055 19.0176 245.824 19.043 245.625 19.0938C245.426 19.1406 245.26 19.2109 245.127 19.3047C244.994 19.3984 244.895 19.5117 244.828 19.6445C244.762 19.7773 244.729 19.9277 244.729 20.0957C244.729 20.2637 244.768 20.418 244.846 20.5586C244.924 20.6953 245.037 20.8027 245.186 20.8809C245.338 20.959 245.521 20.998 245.736 20.998C246.025 20.998 246.277 20.9395 246.492 20.8223C246.711 20.7012 246.883 20.5547 247.008 20.3828C247.133 20.207 247.199 20.041 247.207 19.8848L247.664 20.5117C247.617 20.6719 247.537 20.8438 247.424 21.0273C247.311 21.2109 247.162 21.3867 246.979 21.5547C246.799 21.7188 246.582 21.8535 246.328 21.959C246.078 22.0645 245.789 22.1172 245.461 22.1172C245.047 22.1172 244.678 22.0352 244.354 21.8711C244.029 21.7031 243.775 21.4785 243.592 21.1973C243.408 20.9121 243.316 20.5898 243.316 20.2305C243.316 19.8945 243.379 19.5977 243.504 19.3398C243.633 19.0781 243.82 18.8594 244.066 18.6836C244.316 18.5078 244.621 18.375 244.98 18.2852C245.34 18.1914 245.75 18.1445 246.211 18.1445H247.318ZM254.475 20.6875V13H255.893V22H254.61L254.475 20.6875ZM250.35 18.9004V18.7773C250.35 18.2969 250.407 17.8594 250.52 17.4648C250.633 17.0664 250.797 16.7246 251.012 16.4395C251.227 16.1504 251.489 15.9297 251.797 15.7773C252.106 15.6211 252.454 15.543 252.84 15.543C253.223 15.543 253.559 15.6172 253.848 15.7656C254.137 15.9141 254.383 16.127 254.586 16.4043C254.789 16.6777 254.952 17.0059 255.073 17.3887C255.194 17.7676 255.28 18.1895 255.33 18.6543V19.0469C255.28 19.5 255.194 19.9141 255.073 20.2891C254.952 20.6641 254.789 20.9883 254.586 21.2617C254.383 21.5352 254.135 21.7461 253.842 21.8945C253.553 22.043 253.215 22.1172 252.829 22.1172C252.446 22.1172 252.1 22.0371 251.791 21.877C251.487 21.7168 251.227 21.4922 251.012 21.2031C250.797 20.9141 250.633 20.5742 250.52 20.1836C250.407 19.7891 250.35 19.3613 250.35 18.9004ZM251.762 18.7773V18.9004C251.762 19.1895 251.788 19.459 251.838 19.709C251.893 19.959 251.977 20.1797 252.09 20.3711C252.204 20.5586 252.35 20.707 252.53 20.8164C252.713 20.9219 252.932 20.9746 253.186 20.9746C253.506 20.9746 253.77 20.9043 253.977 20.7637C254.184 20.623 254.346 20.4336 254.463 20.1953C254.584 19.9531 254.666 19.6836 254.709 19.3867V18.3262C254.686 18.0957 254.637 17.8809 254.563 17.6816C254.493 17.4824 254.397 17.3086 254.276 17.1602C254.155 17.0078 254.004 16.8906 253.825 16.8086C253.649 16.7227 253.44 16.6797 253.198 16.6797C252.94 16.6797 252.721 16.7344 252.541 16.8438C252.362 16.9531 252.213 17.1035 252.096 17.2949C251.983 17.4863 251.899 17.709 251.844 17.9629C251.789 18.2168 251.762 18.4883 251.762 18.7773ZM265.021 14.6055L262.472 22H260.931L264.142 13.4688H265.126L265.021 14.6055ZM267.154 22L264.599 14.6055L264.488 13.4688H265.478L268.7 22H267.154ZM267.03 18.8359V20.002H262.39V18.8359H267.03ZM271.627 13V22H270.209V13H271.627ZM275.836 20.8809L277.389 15.6602H278.854L276.65 22H275.736L275.836 20.8809ZM274.646 15.6602L276.229 20.9043L276.305 22H275.391L273.176 15.6602H274.646ZM281.838 15.6602V22H280.42V15.6602H281.838ZM280.327 13.9961C280.327 13.7812 280.397 13.6035 280.538 13.4629C280.682 13.3184 280.881 13.2461 281.135 13.2461C281.385 13.2461 281.582 13.3184 281.727 13.4629C281.871 13.6035 281.944 13.7812 281.944 13.9961C281.944 14.207 281.871 14.3828 281.727 14.5234C281.582 14.6641 281.385 14.7344 281.135 14.7344C280.881 14.7344 280.682 14.6641 280.538 14.5234C280.397 14.3828 280.327 14.207 280.327 13.9961ZM285.386 17.0137V22H283.973V15.6602H285.304L285.386 17.0137ZM285.134 18.5957L284.677 18.5898C284.68 18.1406 284.743 17.7285 284.864 17.3535C284.989 16.9785 285.161 16.6562 285.38 16.3867C285.602 16.1172 285.868 15.9102 286.177 15.7656C286.485 15.6172 286.829 15.543 287.208 15.543C287.512 15.543 287.788 15.5859 288.034 15.6719C288.284 15.7539 288.497 15.8887 288.673 16.0762C288.852 16.2637 288.989 16.5078 289.083 16.8086C289.177 17.1055 289.223 17.4707 289.223 17.9043V22H287.805V17.8984C287.805 17.5938 287.761 17.3535 287.671 17.1777C287.585 16.998 287.458 16.8711 287.29 16.7969C287.126 16.7188 286.921 16.6797 286.675 16.6797C286.432 16.6797 286.216 16.7305 286.024 16.832C285.833 16.9336 285.671 17.0723 285.538 17.248C285.409 17.4238 285.309 17.627 285.239 17.8574C285.169 18.0879 285.134 18.334 285.134 18.5957Z" fill="black"/>
<defs>
<filter id="filter0_d_21_96" x="0" y="0" width="405" height="232" filterUnits="userSpaceOnUse" color-interpolation-filters="sRGB">
<feFlood flood-opacity="0" result="BackgroundImageFix"/>
<feColorMatrix in="SourceAlpha" type="matrix" values="0 0 0 0 0 0 0 0 0 0 0 0 0 0 0 0 0 0 127 0" result="hardAlpha"/>
<feOffset dy="4"/>
<feGaussianBlur stdDeviation="2"/>
<feComposite in2="hardAlpha" operator="out"/>
<feColorMatrix type="matrix" values="0 0 0 0 0 0 0 0 0 0 0 0 0 0 0 0 0 0 0.25 0"/>
<feBlend mode="normal" in2="BackgroundImageFix" result="effect1_dropShadow_21_96"/>
<feBlend mode="normal" in="SourceGraphic" in2="effect1_dropShadow_21_96" result="shape"/>
</filter>
</defs>
</svg>
