<svg width="31" height="32" viewBox="0 0 31 32" fill="none" xmlns="http://www.w3.org/2000/svg">
<path d="M11.625 6.66667H9.04166C7.61493 6.66667 6.45833 7.86057 6.45833 9.33333V25.3333C6.45833 26.8061 7.61493 28 9.04166 28H21.9583C23.3851 28 24.5417 26.8061 24.5417 25.3333V9.33333C24.5417 7.86057 23.3851 6.66667 21.9583 6.66667H19.375M11.625 6.66667C11.625 8.13943 12.7816 9.33333 14.2083 9.33333H16.7917C18.2184 9.33333 19.375 8.13943 19.375 6.66667M11.625 6.66667C11.625 5.19391 12.7816 4 14.2083 4H16.7917C18.2184 4 19.375 5.19391 19.375 6.66667M15.5 16H19.375M15.5 21.3333H19.375M11.625 16H11.6379M11.625 21.3333H11.6379" stroke="white" stroke-width="2" stroke-linecap="round"/>
</svg>
