<svg width="235" height="18" viewBox="0 0 235 18" fill="none" xmlns="http://www.w3.org/2000/svg">
<path d="M0.523438 0.9375H6.88672C8.19141 0.9375 9.3125 1.13281 10.25 1.52344C11.1953 1.91406 11.9219 2.49219 12.4297 3.25781C12.9375 4.02344 13.1914 4.96484 13.1914 6.08203C13.1914 6.99609 13.0352 7.78125 12.7227 8.4375C12.418 9.08594 11.9844 9.62891 11.4219 10.0664C10.8672 10.4961 10.2148 10.8398 9.46484 11.0977L8.35156 11.6836H2.82031L2.79688 8.94141H6.91016C7.52734 8.94141 8.03906 8.83203 8.44531 8.61328C8.85156 8.39453 9.15625 8.08984 9.35938 7.69922C9.57031 7.30859 9.67578 6.85547 9.67578 6.33984C9.67578 5.79297 9.57422 5.32031 9.37109 4.92188C9.16797 4.52344 8.85938 4.21875 8.44531 4.00781C8.03125 3.79688 7.51172 3.69141 6.88672 3.69141H4.03906V18H0.523438V0.9375ZM10.0625 18L6.17188 10.3945L9.88672 10.3711L13.8242 17.8359V18H10.0625ZM19.1567 0.9375V18H15.6528V0.9375H19.1567ZM26.083 15.293L29.4814 0.9375H31.3798L31.8134 3.32812L28.1923 18H26.1533L26.083 15.293ZM24.3369 0.9375L27.1494 15.293L26.915 18H24.6416L20.8564 0.9375H24.3369ZM34.8017 15.2344L37.5791 0.9375H41.0595L37.2861 18H35.0127L34.8017 15.2344ZM32.4463 0.9375L35.8681 15.3516L35.7744 18H33.7353L30.0908 3.31641L30.5595 0.9375H32.4463ZM48.9116 3.85547L44.2709 18H40.5327L46.8725 0.9375H49.2514L48.9116 3.85547ZM52.767 18L48.1147 3.85547L47.7397 0.9375H50.142L56.517 18H52.767ZM52.5561 11.6484V14.4023H43.5444V11.6484H52.5561ZM58.4159 0.9375L61.9784 8.71875L65.5409 0.9375H69.373L63.7597 11.7891V18H60.1972V11.7891L54.5722 0.9375H58.4159ZM75.8422 3.85547L71.2016 18H67.4633L73.8031 0.9375H76.182L75.8422 3.85547ZM79.6977 18L75.0453 3.85547L74.6703 0.9375H77.0727L83.4477 18H79.6977ZM79.4867 11.6484V14.4023H70.475V11.6484H79.4867ZM90.7255 0.9375V18H87.2216V0.9375H90.7255ZM95.9755 0.9375V3.69141H82.0536V0.9375H95.9755ZM109.008 11.918H104.66V9.17578H109.008C109.68 9.17578 110.226 9.06641 110.648 8.84766C111.07 8.62109 111.379 8.30859 111.574 7.91016C111.769 7.51172 111.867 7.0625 111.867 6.5625C111.867 6.05469 111.769 5.58203 111.574 5.14453C111.379 4.70703 111.07 4.35547 110.648 4.08984C110.226 3.82422 109.68 3.69141 109.008 3.69141H105.879V18H102.363V0.9375H109.008C110.344 0.9375 111.488 1.17969 112.441 1.66406C113.402 2.14063 114.137 2.80078 114.644 3.64453C115.152 4.48828 115.406 5.45312 115.406 6.53906C115.406 7.64062 115.152 8.59375 114.644 9.39844C114.137 10.2031 113.402 10.8242 112.441 11.2617C111.488 11.6992 110.344 11.918 109.008 11.918ZM128.801 15.2578V18H119.719V15.2578H128.801ZM120.868 0.9375V18H117.352V0.9375H120.868ZM127.618 7.88672V10.5586H119.719V7.88672H127.618ZM128.789 0.9375V3.69141H119.719V0.9375H128.789ZM144.259 0.9375V18H140.743L133.887 6.5625V18H130.372V0.9375H133.887L140.755 12.3867V0.9375H144.259ZM152.075 18H148.361L148.384 15.2578H152.075C152.997 15.2578 153.775 15.0508 154.408 14.6367C155.04 14.2148 155.517 13.6016 155.837 12.7969C156.165 11.9922 156.329 11.0195 156.329 9.87891V9.04688C156.329 8.17188 156.236 7.40234 156.048 6.73828C155.868 6.07422 155.599 5.51563 155.24 5.0625C154.88 4.60937 154.439 4.26953 153.915 4.04297C153.392 3.80859 152.79 3.69141 152.111 3.69141H148.29V0.9375H152.111C153.251 0.9375 154.294 1.13281 155.24 1.52344C156.193 1.90625 157.017 2.45703 157.712 3.17578C158.408 3.89453 158.943 4.75391 159.318 5.75391C159.7 6.74609 159.892 7.85156 159.892 9.07031V9.87891C159.892 11.0898 159.7 12.1953 159.318 13.1953C158.943 14.1953 158.408 15.0547 157.712 15.7734C157.025 16.4844 156.2 17.0352 155.24 17.4258C154.286 17.8086 153.232 18 152.075 18ZM150.353 0.9375V18H146.837V0.9375H150.353ZM165.705 0.9375V18H162.201V0.9375H165.705ZM173.756 18H170.041L170.065 15.2578H173.756C174.678 15.2578 175.455 15.0508 176.088 14.6367C176.721 14.2148 177.197 13.6016 177.518 12.7969C177.846 11.9922 178.01 11.0195 178.01 9.87891V9.04688C178.01 8.17188 177.916 7.40234 177.729 6.73828C177.549 6.07422 177.28 5.51563 176.92 5.0625C176.561 4.60937 176.119 4.26953 175.596 4.04297C175.072 3.80859 174.471 3.69141 173.791 3.69141H169.971V0.9375H173.791C174.932 0.9375 175.975 1.13281 176.92 1.52344C177.873 1.90625 178.697 2.45703 179.393 3.17578C180.088 3.89453 180.623 4.75391 180.998 5.75391C181.381 6.74609 181.572 7.85156 181.572 9.07031V9.87891C181.572 11.0898 181.381 12.1953 180.998 13.1953C180.623 14.1953 180.088 15.0547 179.393 15.7734C178.705 16.4844 177.881 17.0352 176.92 17.4258C175.967 17.8086 174.912 18 173.756 18ZM172.033 0.9375V18H168.518V0.9375H172.033ZM187.385 0.9375V18H183.882V0.9375H187.385ZM193.714 0.9375V18H190.198V0.9375H193.714ZM203.933 0.9375L197.171 9.36328L193.269 13.5586L192.636 10.2305L195.273 6.62109L199.62 0.9375H203.933ZM199.937 18L194.909 10.1133L197.511 7.93359L204.097 18H199.937ZM211.914 3.85547L207.273 18H203.535L209.875 0.9375H212.254L211.914 3.85547ZM215.769 18L211.117 3.85547L210.742 0.9375H213.144L219.519 18H215.769ZM215.558 11.6484V14.4023H206.547V11.6484H215.558ZM234.508 0.9375V18H230.992L224.137 6.5625V18H220.621V0.9375H224.137L231.004 12.3867V0.9375H234.508Z" fill="white"/>
</svg>
